<?xml version="1.0" standalone="no"?>
<!-- Generator: Gravit.io --><svg xmlns="http://www.w3.org/2000/svg" xmlns:xlink="http://www.w3.org/1999/xlink" style="isolation:isolate" viewBox="0 0 496 496">
    <defs>
        <clipPath id="_clipPath_04TGsrO8dLQBReeQGhtOQ3veTdbud3sd">
            <rect width="496" height="496" />
        </clipPath>
    </defs>
    <g clip-path="url(#_clipPath_04TGsrO8dLQBReeQGhtOQ3veTdbud3sd)">
        <circle vector-effect="non-scaling-stroke" cx="249.00000000000003" cy="247.00000000000009" r="249.00000000000003" fill="rgb(255,255,255)" />
        <path d=" M 248 0 C 111 0 0 111 0 248 C 0 385 111 496 248 496 C 385 496 496 385 496 248 C 496 111 385 0 248 0 Z  M 248 448 C 137.5 448 48 358.5 48 248 C 48 137.5 137.5 48 248 48 C 358.5 48 448 137.5 448 248 C 448 358.5 358.5 448 248 448 Z  M 349.8 185.8 L 287.6 248 L 349.8 310.2 C 354.5 314.9 354.5 322.5 349.8 327.2 L 327.2 349.8 C 322.5 354.5 314.9 354.5 310.2 349.8 L 248 287.6 L 185.8 349.8 C 181.1 354.5 173.5 354.5 168.8 349.8 L 146.2 327.2 C 141.5 322.5 141.5 314.9 146.2 310.2 L 208.4 248 L 146.2 185.8 C 141.5 181.1 141.5 173.5 146.2 168.8 L 168.8 146.2 C 173.5 141.5 181.1 141.5 185.8 146.2 L 248 208.4 L 310.2 146.2 C 314.9 141.5 322.5 141.5 327.2 146.2 L 349.8 168.8 C 354.5 173.5 354.5 181.1 349.8 185.8 L 349.8 185.8 L 349.8 185.8 Z " fill="rgb(100,100,100)" />
    </g>
</svg>